<?xml version="1.0" encoding="UTF-8" standalone="no"?>
<svg width="100px" height="88px" viewBox="0 0 100 88" version="1.1" xmlns="http://www.w3.org/2000/svg" xmlns:xlink="http://www.w3.org/1999/xlink" xmlns:sketch="http://www.bohemiancoding.com/sketch/ns">
    <!-- Generator: Sketch 3.0 (7573) - http://www.bohemiancoding.com/sketch -->
    <title>calendar</title>
    <description>Created with Sketch.</description>
    <defs></defs>
    <g id="Page-1" stroke="none" stroke-width="1" fill="none" fill-rule="evenodd" sketch:type="MSPage">
        <g id="calendar" sketch:type="MSLayerGroup" fill="#414042">
            <g id="Your_Icon_2_" sketch:type="MSShapeGroup">
                <path d="M85.896,72.797 C85.202,72.797 84.634,73.362 84.634,74.057 L84.634,85.092 L97.073,72.797 L92.891,72.797 L85.896,72.797 L85.896,72.797 Z" id="Shape"></path>
                <path d="M99.936,24.496 L100,24.496 C99.975,23.058 99.952,23.215 99.936,24.496 L99.936,24.496 Z" id="Shape"></path>
                <path d="M19.704,15.41 C20.538,15.41 21.215,14.732 21.215,13.896 L21.215,1.8 C21.215,0.967 20.538,0.288 19.704,0.288 C18.87,0.288 18.189,0.967 18.189,1.8 L18.189,13.896 C18.189,14.732 18.869,15.41 19.704,15.41 L19.704,15.41 Z" id="Shape"></path>
                <path d="M80.184,15.41 C81.02,15.41 81.696,14.732 81.696,13.896 L81.696,1.8 C81.696,0.967 81.02,0.288 80.184,0.288 C79.35,0.288 78.673,0.967 78.673,1.8 L78.673,13.896 C78.673,14.732 79.35,15.41 80.184,15.41 L80.184,15.41 Z" id="Shape"></path>
                <path d="M0,88 L81.646,88 L81.646,74.057 C81.646,71.739 83.525,69.858 85.847,69.858 L99.789,69.858 L99.791,69.856 C99.791,69.856 99.791,31.295 99.888,24.497 L0.16,24.497 L0,88 L0,88 Z M81.693,33.567 L90.767,33.567 L90.767,42.639 L81.693,42.639 L81.693,33.567 L81.693,33.567 Z M81.693,45.666 L90.767,45.666 L90.767,54.736 L81.693,54.736 L81.693,45.666 L81.693,45.666 Z M81.693,57.761 L90.767,57.761 L90.767,66.832 L81.693,66.832 L81.693,57.761 L81.693,57.761 Z M69.598,33.567 L78.673,33.567 L78.673,42.639 L69.598,42.639 L69.598,33.567 L69.598,33.567 Z M69.598,45.666 L78.673,45.666 L78.673,54.736 L69.598,54.736 L69.598,45.666 L69.598,45.666 Z M69.598,57.761 L78.673,57.761 L78.673,66.832 L69.598,66.832 L69.598,57.761 L69.598,57.761 Z M57.504,33.567 L66.576,33.567 L66.576,42.639 L57.504,42.639 L57.504,33.567 L57.504,33.567 Z M57.504,45.666 L66.576,45.666 L66.576,54.736 L57.504,54.736 L57.504,45.666 L57.504,45.666 Z M57.504,57.761 L66.576,57.761 L66.576,66.832 L57.504,66.832 L57.504,57.761 L57.504,57.761 Z M45.407,45.666 L54.48,45.666 L54.48,54.736 L45.407,54.736 L45.407,45.666 L45.407,45.666 Z M45.407,57.761 L54.48,57.761 L54.48,66.832 L45.407,66.832 L45.407,57.761 L45.407,57.761 Z M45.407,69.857 L54.48,69.857 L54.48,78.929 L45.407,78.929 L45.407,69.857 L45.407,69.857 Z M33.311,45.666 L42.384,45.666 L42.384,54.736 L33.311,54.736 L33.311,45.666 L33.311,45.666 Z M33.311,57.761 L42.384,57.761 L42.384,66.832 L33.311,66.832 L33.311,57.761 L33.311,57.761 Z M33.311,69.857 L42.384,69.857 L42.384,78.929 L33.311,78.929 L33.311,69.857 L33.311,69.857 Z M21.215,45.666 L30.288,45.666 L30.288,54.736 L21.215,54.736 L21.215,45.666 L21.215,45.666 Z M21.215,57.761 L30.288,57.761 L30.288,66.832 L21.215,66.832 L21.215,57.761 L21.215,57.761 Z M21.215,69.857 L30.288,69.857 L30.288,78.929 L21.215,78.929 L21.215,69.857 L21.215,69.857 Z M9.119,45.666 L18.191,45.666 L18.191,54.736 L9.119,54.736 L9.119,45.666 L9.119,45.666 Z M9.119,57.761 L18.191,57.761 L18.191,66.832 L9.119,66.832 L9.119,57.761 L9.119,57.761 Z M9.119,69.857 L18.191,69.857 L18.191,78.929 L9.119,78.929 L9.119,69.857 L9.119,69.857 Z" id="Shape"></path>
                <path d="M99.84,6.338 L84.719,6.338 L84.719,13.897 C84.719,16.403 82.69,18.434 80.184,18.434 C77.68,18.434 75.647,16.403 75.647,13.897 L75.647,6.338 L24.24,6.338 L24.24,13.897 C24.24,16.403 22.208,18.434 19.703,18.434 C17.197,18.434 15.166,16.403 15.166,13.897 L15.166,6.338 L0.047,6.338 L0.047,21.457 L99.84,21.457 L99.84,6.338 L99.84,6.338 Z" id="Shape"></path>
            </g>
        </g>
    </g>
</svg>