<?xml version="1.0" encoding="UTF-8" standalone="no"?>
<svg width="100px" height="100px" viewBox="0 0 100 100" version="1.1" xmlns="http://www.w3.org/2000/svg" xmlns:xlink="http://www.w3.org/1999/xlink" xmlns:sketch="http://www.bohemiancoding.com/sketch/ns">
    <!-- Generator: Sketch 3.0 (7573) - http://www.bohemiancoding.com/sketch -->
    <title>community</title>
    <description>Created with Sketch.</description>
    <defs></defs>
    <g id="Page-1" stroke="none" stroke-width="1" fill="none" fill-rule="evenodd" sketch:type="MSPage">
        <g id="community" sketch:type="MSLayerGroup" fill="#414042">
            <g id="Group" sketch:type="MSShapeGroup">
                <path d="M61.111,69.443 L38.888,69.443 C34.286,69.443 30.556,73.173 30.556,77.777 L30.556,100 L38.888,100 L61.111,100 L69.445,100 L69.445,77.777 C69.443,73.175 65.712,69.443 61.111,69.443 L61.111,69.443 Z" id="Shape"></path>
                <circle id="Oval" cx="19.333" cy="61.333" r="8.333"></circle>
                <circle id="Oval" cx="49.722" cy="55.722" r="9.722"></circle>
                <path d="M25,77.777 C25,76.326 25.225,74.925 25.641,73.611 L6.944,73.611 C3.11,73.611 0.001,76.719 0.001,80.556 L0.001,100 L25.001,100 L25.001,77.777 L25,77.777 Z" id="Shape"></path>
                <circle id="Oval" cx="80.333" cy="61.333" r="8.333"></circle>
                <path d="M75,77.777 C75,76.326 74.773,74.925 74.359,73.611 L93.054,73.611 C96.89,73.611 99.998,76.718 99.998,80.554 L99.998,100 L75,100 L75,77.777 L75,77.777 Z" id="Shape"></path>
                <path d="M80.557,0 L19.444,0 C16.377,0 13.889,2.486 13.889,5.557 L13.889,30.557 C13.889,33.624 16.376,36.112 19.444,36.112 L19.452,36.112 L44.444,36.112 L50.001,43.057 L55.558,36.112 L80.55,36.112 L80.558,36.112 C83.625,36.112 86.113,33.625 86.113,30.557 L86.113,5.557 C86.111,2.486 83.624,0 80.557,0 L80.557,0 Z M37.5,20.833 L33.333,20.833 L33.333,25 L27.777,25 L27.777,20.833 L23.609,20.833 L23.609,15.277 L27.777,15.277 L27.777,11.109 L33.333,11.109 L33.333,15.277 L37.5,15.277 L37.5,20.833 L37.5,20.833 Z M55.729,19.035 L50,24.738 L44.271,19.034 C42.939,17.726 42.361,16.294 42.361,15.013 C42.361,12.827 43.82,11.37 46.029,11.37 C48.09,11.37 48.794,12.325 49.999,13.705 C51.206,12.324 51.909,11.37 53.969,11.37 C56.182,11.37 57.639,12.827 57.639,15.013 C57.639,16.295 57.061,17.729 55.729,19.035 L55.729,19.035 Z M69.443,25 C66.376,25 63.888,22.514 63.888,19.443 C63.888,17.379 65.029,15.597 66.7,14.64 C66.483,14.619 66.264,14.581 66.052,14.506 C64.605,13.996 63.888,12.273 63.888,12.273 C63.888,12.273 65.525,11.373 66.974,11.88 C67.978,12.234 68.62,13.159 68.925,13.7 C69.132,12.856 69.484,12.337 69.769,11.926 C70.025,11.558 70.138,11.384 70.138,11.111 L71.527,11.111 C71.527,11.831 71.201,12.302 70.912,12.718 C70.675,13.058 70.433,13.407 70.284,13.972 C72.95,14.38 75,16.663 75,19.443 C75,22.514 72.514,25 69.443,25 L69.443,25 Z" id="Shape"></path>
            </g>
        </g>
    </g>
</svg>