<?xml version="1.0" encoding="UTF-8" standalone="no"?>
<svg width="100px" height="65px" viewBox="0 0 100 65" version="1.1" xmlns="http://www.w3.org/2000/svg" xmlns:xlink="http://www.w3.org/1999/xlink" xmlns:sketch="http://www.bohemiancoding.com/sketch/ns">
    <!-- Generator: Sketch 3.0 (7573) - http://www.bohemiancoding.com/sketch -->
    <title>partners</title>
    <description>Created with Sketch.</description>
    <defs></defs>
    <g id="Page-1" stroke="none" stroke-width="1" fill="none" fill-rule="evenodd" sketch:type="MSPage">
        <g id="partners" sketch:type="MSLayerGroup" fill="#414042">
            <g id="Group" sketch:type="MSShapeGroup">
                <path d="M24.948,11.602 C24.948,17.93 19.818,23.047 13.515,23.047 C7.174,23.047 2.058,17.93 2.058,11.602 C2.056,5.287 7.173,0.157 13.515,0.157 C19.818,0.156 24.948,5.286 24.948,11.602 L24.948,11.602 Z" id="Shape"></path>
                <path d="M75.052,11.602 C75.052,17.93 80.184,23.047 86.485,23.047 C92.827,23.047 97.958,17.93 97.958,11.602 C97.957,5.287 92.826,0.157 86.485,0.157 C80.184,0.156 75.052,5.286 75.052,11.602 L75.052,11.602 Z" id="Shape"></path>
                <path d="M43.672,50.938 C43.412,48.502 44.35,46.25 45.938,44.61 C36.25,42.76 32.28,38.035 28.83,33.762 C27.149,31.666 25.549,29.674 23.426,28.268 C23.361,28.229 23.283,28.229 23.232,28.176 C21.421,26.678 19.129,25.729 16.605,25.729 L10.419,25.729 C4.689,25.73 0.001,30.405 0.001,36.133 L0.001,65 L27.019,65 L27.019,46.342 C30.964,49.792 36.539,53.073 45.105,54.506 C44.389,53.465 43.828,52.292 43.672,50.938 L43.672,50.938 Z" id="Shape"></path>
                <path d="M89.598,25.729 L83.399,25.729 C80.886,25.729 78.583,26.679 76.786,28.177 C76.722,28.229 76.641,28.229 76.591,28.267 C74.468,29.673 72.866,31.654 71.174,33.763 C67.385,38.451 63.088,43.802 51.07,45.13 C48.349,45.442 46.396,47.89 46.695,50.611 C46.968,53.15 49.118,55.025 51.617,55.025 C51.8,55.025 51.982,55.01 52.178,54.999 C62.36,53.866 68.662,50.246 72.998,46.405 L72.998,65 L100,65 L100,36.133 C100,30.404 95.312,25.729 89.598,25.729 L89.598,25.729 Z" id="Shape"></path>
            </g>
            <g id="Group" sketch:type="MSShapeGroup">
                <path d="M24.948,11.602 C24.948,17.93 19.818,23.047 13.515,23.047 C7.174,23.047 2.058,17.93 2.058,11.602 C2.056,5.287 7.173,0.157 13.515,0.157 C19.818,0.156 24.948,5.286 24.948,11.602 L24.948,11.602 Z" id="Shape"></path>
                <path d="M75.052,11.602 C75.052,17.93 80.184,23.047 86.485,23.047 C92.827,23.047 97.958,17.93 97.958,11.602 C97.957,5.287 92.826,0.157 86.485,0.157 C80.184,0.156 75.052,5.286 75.052,11.602 L75.052,11.602 Z" id="Shape"></path>
                <path d="M43.672,50.938 C43.412,48.502 44.35,46.25 45.938,44.61 C36.25,42.76 32.28,38.035 28.83,33.762 C27.149,31.666 25.549,29.674 23.426,28.268 C23.361,28.229 23.283,28.229 23.232,28.176 C21.421,26.678 19.129,25.729 16.605,25.729 L10.419,25.729 C4.689,25.73 0.001,30.405 0.001,36.133 L0.001,65 L27.019,65 L27.019,46.342 C30.964,49.792 36.539,53.073 45.105,54.506 C44.389,53.465 43.828,52.292 43.672,50.938 L43.672,50.938 Z" id="Shape"></path>
                <path d="M89.598,25.729 L83.399,25.729 C80.886,25.729 78.583,26.679 76.786,28.177 C76.722,28.229 76.641,28.229 76.591,28.267 C74.468,29.673 72.866,31.654 71.174,33.763 C67.385,38.451 63.088,43.802 51.07,45.13 C48.349,45.442 46.396,47.89 46.695,50.611 C46.968,53.15 49.118,55.025 51.617,55.025 C51.8,55.025 51.982,55.01 52.178,54.999 C62.36,53.866 68.662,50.246 72.998,46.405 L72.998,65 L100,65 L100,36.133 C100,30.404 95.312,25.729 89.598,25.729 L89.598,25.729 Z" id="Shape"></path>
            </g>
        </g>
    </g>
</svg>