<?xml version="1.0" encoding="utf-8"?>
<!-- Generator: Adobe Illustrator 16.0.4, SVG Export Plug-In . SVG Version: 6.00 Build 0)  -->
<!DOCTYPE svg PUBLIC "-//W3C//DTD SVG 1.1//EN" "http://www.w3.org/Graphics/SVG/1.1/DTD/svg11.dtd">
<svg version="1.1" id="Layer_1" xmlns="http://www.w3.org/2000/svg" xmlns:xlink="http://www.w3.org/1999/xlink" x="0px" y="0px"
	 width="512px" height="512px" viewBox="0 0 512 512" enable-background="new 0 0 512 512" xml:space="preserve">
<path fill="#505050" d="M445,386.7l-84.8-85.9c13.8-24.1,21-50.9,21-77.9C381.2,135.3,310,64,222.6,64S64,135.3,64,222.9
	s71.2,158.9,158.6,158.9c27.9,0,55.5-7.7,80.1-22.399L387.1,445c1.9,1.9,4.601,3.1,7.301,3.1c2.699,0,5.399-1.1,7.3-3.1l43.3-43.8
	C449,397.1,449,390.7,445,386.7z M222.6,125.9c53.4,0,96.8,43.5,96.8,97c0,53.5-43.4,97-96.8,97s-96.8-43.5-96.8-97
	C125.8,169.4,169.2,125.9,222.6,125.9z"/>
</svg>
